<?xml version="1.0" encoding="UTF-8" standalone="no"?>
<!-- Created with Inkscape (http://www.inkscape.org/) -->
<svg
   xmlns:svg="http://www.w3.org/2000/svg"
   xmlns="http://www.w3.org/2000/svg"
   version="1.0"
   width="120"
   height="84"
   id="svg2">
  <defs
     id="defs4" />
  <g
     transform="translate(-338.5615,-521.48375)"
     id="layer1">
    <g
       transform="matrix(0.9333336,0,0,0.9333336,340.67684,524.30421)"
       id="g2412">
      <g
         id="g2384">
	<path
   d="M 61.437,83.95 C 95,83.95 122.214,65.304 122.214,42.307 C 122.214,19.307 94.999,0.662 61.437,0.662 C 27.875,0.662 0.663,19.308 0.663,42.308 C 0.663,65.304 27.874,83.95 61.437,83.95 z"
   id="path2386"
   style="fill:#ffdf1b" />

	<path
   d="M 0,42.308 C 0,65.636 27.56,84.614 61.437,84.614 C 95.315,84.614 122.877,65.636 122.877,42.308 C 122.877,18.979 95.315,0 61.437,0 C 27.56,0 0,18.979 0,42.308 z M 1.326,42.308 C 1.326,19.711 28.291,1.327 61.436,1.327 C 94.583,1.327 121.55,19.711 121.55,42.308 C 121.55,64.904 94.583,83.287 61.436,83.287 C 28.292,83.287 1.326,64.904 1.326,42.308 z"
   id="path2388"
   style="fill:#006330" />

	<path
   id="path2390"
   style="fill:none;stroke:#000000;stroke-width:1.32640004" />

</g>
      <g
         id="g2392">
	<path
   d="M 61.437,78.116 C 91.625,78.116 116.083,62.077 116.083,42.307 C 116.083,22.524 91.624,6.494 61.437,6.494 C 31.259,6.494 6.792,22.523 6.792,42.307 C 6.792,62.077 31.259,78.116 61.437,78.116 z"
   id="path2394"
   style="fill:#006330" />

	<path
   id="path2396" />

</g>
      <path
         d="M 20.028,55.433 L 25.987,25.904 L 40.225,25.904 C 48.709,25.904 51.756,31.125 50.532,37.201 C 49.249,43.555 46.419,46.65 36.307,46.65 L 31.428,46.65 L 29.709,55.433 L 20.028,55.433 z M 36.907,39.624 C 39.163,39.624 40.987,38.724 41.495,36.181 C 42.056,33.433 39.009,33.058 36.96,33.058 L 34.214,33.058 L 32.884,39.624 L 36.907,39.624 L 36.907,39.624 z"
         id="path2398"
         style="fill:#ffdf1b" />
      <path
         d="M 72.468,36.386 C 72.468,34.079 70.878,32.21 67.837,32.21 C 64.437,32.21 60.909,35.345 60.013,41.023 C 59.365,45.199 59.794,49.066 64.72,49.066 C 68.019,49.066 70.601,45.759 71.2,44 L 79.975,44 C 78.155,51.326 72.041,55.949 64.248,55.949 C 56.531,55.949 50.535,51.748 50.535,43.281 C 50.535,30.635 59.849,24.992 68.521,24.992 C 77.548,24.992 80.939,31.49 80.591,36.387 L 72.468,36.387 L 72.468,36.386 z"
         id="path2400"
         style="fill:#ffdf1b" />
      <path
         d="M 78.478,55.433 L 84.316,25.904 L 93.336,25.904 L 89.12,47.62 L 102.015,47.62 L 100.386,55.433 L 78.478,55.433 z"
         id="path2402"
         style="fill:#ffdf1b" />
    </g>
  </g>
</svg>
